<?xml version="1.0" standalone="no"?>
<!DOCTYPE svg PUBLIC "-//W3C//DTD SVG 20010904//EN"
 "http://www.w3.org/TR/2001/REC-SVG-20010904/DTD/svg10.dtd">
<svg version="1.0" xmlns="http://www.w3.org/2000/svg"
 width="1021.000000pt" height="1021.000000pt" viewBox="0 0 1021.000000 1021.000000"
 preserveAspectRatio="xMidYMid meet">
<metadata>
Created by potrace 1.14, written by Peter Selinger 2001-2017
</metadata>
<g transform="translate(0.000000,1021.000000) scale(0.100000,-0.100000)"
fill="#000000" stroke="none">
<path d="M2620 8183 c-120 -43 -206 -125 -238 -231 -26 -85 -261 -926 -277
-992 -2 -8 -25 -87 -50 -175 -26 -88 -49 -180 -52 -206 -11 -95 34 -173 114
-200 30 -10 470 -12 2103 -13 1136 -1 2087 3 2114 7 92 16 183 80 232 162 20
35 63 162 79 235 3 14 23 85 101 365 14 50 29 104 34 120 4 17 24 89 44 160
21 72 39 139 41 149 3 11 16 58 29 105 68 234 79 280 82 326 3 55 -20 118 -54
148 -53 48 37 46 -2192 46 -1152 0 -2102 -3 -2110 -6z"/>
<path d="M7664 8169 c-60 -23 -135 -85 -170 -141 -15 -24 -64 -180 -129 -415
-58 -208 -112 -400 -120 -428 -8 -27 -26 -93 -40 -145 -35 -127 -63 -226 -130
-465 -31 -110 -58 -207 -60 -215 -4 -17 -145 -523 -235 -845 -34 -121 -72
-258 -85 -305 -13 -47 -40 -143 -60 -215 -20 -71 -38 -137 -40 -145 -2 -8 -20
-71 -39 -140 -20 -69 -76 -271 -126 -450 -107 -388 -104 -377 -129 -465 -11
-38 -38 -137 -61 -220 -23 -82 -57 -206 -77 -275 -19 -69 -36 -129 -37 -135
-2 -5 -10 -35 -19 -65 -111 -379 -239 -863 -239 -906 -1 -74 39 -139 102 -167
17 -8 242 -11 731 -13 663 -1 709 0 766 17 70 22 149 86 188 153 13 22 49 133
80 246 55 197 102 367 180 645 20 72 42 153 50 180 8 28 26 93 40 145 15 52
28 102 30 110 7 26 84 302 100 355 14 49 79 280 95 340 14 55 68 249 100 360
17 61 40 144 52 185 33 123 34 128 83 300 25 91 53 190 61 220 16 59 94 338
149 535 19 66 57 203 85 305 28 102 63 226 77 275 14 50 27 97 28 105 5 18
188 676 281 1005 36 127 67 238 69 247 2 9 17 65 34 124 17 59 31 125 31 148
0 53 -26 102 -73 140 l-39 31 -726 2 c-703 2 -729 1 -778 -18z"/>
<path d="M2020 6008 c-61 -15 -119 -50 -169 -100 -59 -61 -68 -86 -186 -518
-47 -173 -90 -326 -94 -340 -5 -14 -19 -61 -30 -105 -28 -103 -42 -153 -52
-190 -59 -200 -91 -327 -94 -363 -7 -79 31 -148 98 -178 40 -18 119 -19 2147
-18 l2105 1 56 22 c62 24 146 97 175 152 9 19 41 120 70 224 181 654 242 871
259 930 9 28 17 59 20 70 2 11 16 61 30 110 42 147 27 223 -53 280 l-44 30
-2101 1 c-1193 1 -2117 -3 -2137 -8z"/>
<path d="M1423 3829 c-86 -18 -177 -82 -219 -155 -31 -53 -47 -105 -165 -534
-41 -152 -42 -156 -225 -810 -38 -138 -31 -213 28 -267 57 -53 -73 -51 2203
-49 l2110 2 46 22 c60 28 145 105 168 151 18 36 41 117 187 641 112 402 114
410 129 465 7 28 29 109 50 180 52 184 48 252 -17 311 -56 51 73 48 -2170 49
-1153 0 -2109 -3 -2125 -6z"/>
</g>
</svg>
